<svg xmlns="http://www.w3.org/2000/svg" xmlns:xlink="http://www.w3.org/1999/xlink" width="500" zoomAndPan="magnify" viewBox="0 0 375 374.999991" height="500" preserveAspectRatio="xMidYMid meet" version="1.0"><path fill="#000000" d="M 204.929688 163.726562 C 204.929688 164.339844 204.988281 164.945312 205.109375 165.546875 C 205.226562 166.148438 205.40625 166.730469 205.640625 167.296875 C 205.875 167.863281 206.160156 168.402344 206.5 168.910156 C 206.84375 169.417969 207.230469 169.890625 207.664062 170.324219 C 208.097656 170.757812 208.566406 171.144531 209.078125 171.484375 C 209.585938 171.824219 210.125 172.113281 210.691406 172.347656 C 211.257812 172.582031 211.84375 172.757812 212.445312 172.878906 C 213.042969 172.996094 213.652344 173.058594 214.265625 173.058594 C 214.878906 173.058594 215.484375 172.996094 216.085938 172.878906 C 216.6875 172.757812 217.273438 172.582031 217.839844 172.347656 C 218.40625 172.113281 218.941406 171.824219 219.453125 171.484375 C 219.960938 171.144531 220.433594 170.757812 220.867188 170.324219 C 221.300781 169.890625 221.6875 169.417969 222.027344 168.910156 C 222.367188 168.402344 222.65625 167.863281 222.890625 167.296875 C 223.125 166.730469 223.300781 166.148438 223.421875 165.546875 C 223.539062 164.945312 223.601562 164.339844 223.601562 163.726562 C 223.601562 163.113281 223.539062 162.507812 223.421875 161.90625 C 223.300781 161.308594 223.125 160.722656 222.890625 160.160156 C 222.65625 159.59375 222.367188 159.054688 222.027344 158.546875 C 221.6875 158.035156 221.300781 157.566406 220.867188 157.132812 C 220.433594 156.699219 219.960938 156.3125 219.453125 155.972656 C 218.941406 155.632812 218.402344 155.347656 217.835938 155.113281 C 217.269531 154.878906 216.6875 154.699219 216.085938 154.582031 C 215.484375 154.460938 214.878906 154.402344 214.265625 154.402344 C 213.652344 154.402344 213.046875 154.460938 212.445312 154.582031 C 211.84375 154.699219 211.257812 154.878906 210.691406 155.113281 C 210.125 155.347656 209.589844 155.632812 209.078125 155.972656 C 208.570312 156.3125 208.097656 156.699219 207.664062 157.132812 C 207.230469 157.566406 206.84375 158.035156 206.503906 158.546875 C 206.164062 159.054688 205.875 159.59375 205.640625 160.160156 C 205.40625 160.722656 205.230469 161.308594 205.109375 161.90625 C 204.988281 162.507812 204.929688 163.113281 204.929688 163.726562 Z M 204.929688 163.726562 " fill-opacity="1" fill-rule="nonzero"/><path fill="#000000" d="M 179.914062 163.726562 C 179.914062 164.339844 179.972656 164.945312 180.089844 165.546875 C 180.210938 166.148438 180.386719 166.730469 180.621094 167.296875 C 180.855469 167.863281 181.144531 168.402344 181.484375 168.910156 C 181.824219 169.417969 182.210938 169.890625 182.644531 170.324219 C 183.078125 170.757812 183.550781 171.144531 184.058594 171.484375 C 184.570312 171.824219 185.109375 172.113281 185.675781 172.347656 C 186.242188 172.582031 186.824219 172.757812 187.425781 172.878906 C 188.027344 172.996094 188.632812 173.058594 189.246094 173.058594 C 189.859375 173.058594 190.46875 172.996094 191.070312 172.878906 C 191.671875 172.757812 192.253906 172.582031 192.820312 172.347656 C 193.386719 172.113281 193.925781 171.824219 194.433594 171.484375 C 194.945312 171.144531 195.417969 170.757812 195.851562 170.324219 C 196.285156 169.890625 196.671875 169.417969 197.011719 168.910156 C 197.351562 168.402344 197.640625 167.863281 197.875 167.296875 C 198.109375 166.730469 198.285156 166.148438 198.402344 165.546875 C 198.523438 164.945312 198.582031 164.339844 198.582031 163.726562 C 198.582031 163.113281 198.523438 162.507812 198.402344 161.90625 C 198.285156 161.308594 198.105469 160.722656 197.871094 160.160156 C 197.636719 159.59375 197.351562 159.054688 197.007812 158.546875 C 196.667969 158.035156 196.28125 157.566406 195.847656 157.132812 C 195.414062 156.699219 194.941406 156.3125 194.433594 155.972656 C 193.925781 155.632812 193.386719 155.347656 192.820312 155.113281 C 192.253906 154.878906 191.667969 154.699219 191.070312 154.582031 C 190.46875 154.460938 189.859375 154.402344 189.246094 154.402344 C 188.632812 154.402344 188.027344 154.460938 187.425781 154.582031 C 186.824219 154.699219 186.242188 154.878906 185.675781 155.113281 C 185.109375 155.347656 184.570312 155.632812 184.0625 155.972656 C 183.550781 156.3125 183.078125 156.699219 182.648438 157.132812 C 182.214844 157.566406 181.828125 158.035156 181.484375 158.546875 C 181.144531 159.054688 180.859375 159.59375 180.625 160.160156 C 180.386719 160.722656 180.210938 161.308594 180.09375 161.90625 C 179.972656 162.507812 179.914062 163.113281 179.914062 163.726562 Z M 179.914062 163.726562 " fill-opacity="1" fill-rule="nonzero"/><path fill="#000000" d="M 154.894531 163.726562 C 154.894531 164.339844 154.953125 164.945312 155.074219 165.546875 C 155.191406 166.148438 155.371094 166.730469 155.605469 167.296875 C 155.839844 167.863281 156.125 168.402344 156.464844 168.910156 C 156.808594 169.417969 157.195312 169.890625 157.628906 170.324219 C 158.0625 170.757812 158.53125 171.144531 159.042969 171.484375 C 159.550781 171.824219 160.089844 172.113281 160.65625 172.347656 C 161.222656 172.582031 161.808594 172.757812 162.40625 172.878906 C 163.007812 172.996094 163.617188 173.058594 164.230469 173.058594 C 164.84375 173.058594 165.449219 172.996094 166.050781 172.878906 C 166.652344 172.757812 167.238281 172.582031 167.804688 172.347656 C 168.371094 172.113281 168.90625 171.824219 169.417969 171.484375 C 169.925781 171.144531 170.398438 170.757812 170.832031 170.324219 C 171.265625 169.890625 171.652344 169.417969 171.992188 168.910156 C 172.332031 168.402344 172.621094 167.863281 172.855469 167.296875 C 173.089844 166.730469 173.265625 166.148438 173.386719 165.546875 C 173.503906 164.945312 173.566406 164.339844 173.566406 163.726562 C 173.566406 163.113281 173.503906 162.507812 173.386719 161.90625 C 173.265625 161.308594 173.089844 160.722656 172.855469 160.160156 C 172.621094 159.59375 172.332031 159.054688 171.992188 158.546875 C 171.652344 158.035156 171.265625 157.566406 170.832031 157.132812 C 170.398438 156.699219 169.925781 156.3125 169.414062 155.972656 C 168.90625 155.632812 168.367188 155.347656 167.800781 155.113281 C 167.234375 154.878906 166.652344 154.699219 166.050781 154.582031 C 165.449219 154.460938 164.84375 154.402344 164.230469 154.402344 C 163.617188 154.402344 163.011719 154.460938 162.410156 154.582031 C 161.808594 154.699219 161.222656 154.878906 160.65625 155.113281 C 160.089844 155.347656 159.554688 155.632812 159.042969 155.972656 C 158.535156 156.3125 158.0625 156.699219 157.628906 157.132812 C 157.195312 157.566406 156.808594 158.035156 156.46875 158.546875 C 156.128906 159.054688 155.839844 159.59375 155.605469 160.160156 C 155.371094 160.722656 155.195312 161.308594 155.074219 161.90625 C 154.953125 162.507812 154.894531 163.113281 154.894531 163.726562 Z M 154.894531 163.726562 " fill-opacity="1" fill-rule="nonzero"/><path fill="#000000" d="M 226.566406 73.949219 C 239.199219 77.453125 245.292969 83.414062 244.9375 89.640625 C 244.578125 95.863281 239.46875 122.730469 258.421875 125.480469 C 258.503906 127.480469 258.34375 130.015625 258.421875 132.015625 C 239.144531 134.449219 244.695312 161.773438 244.996094 167.929688 C 245.292969 174.082031 239.199219 180.042969 226.566406 183.546875 L 226.566406 177.429688 C 245.515625 174.132812 237.394531 157.535156 240.515625 144.515625 C 243.636719 131.5 252.105469 128.800781 252.105469 128.800781 C 252.105469 128.800781 243.492188 125.898438 240.449219 112.945312 C 237.410156 99.992188 245.332031 83.535156 226.566406 80.066406 Z M 226.566406 73.949219 " fill-opacity="1" fill-rule="nonzero"/><path fill="#000000" d="M 148.433594 73.777344 C 135.796875 77.28125 129.707031 83.242188 130.0625 89.464844 C 130.421875 95.691406 135.53125 122.558594 116.578125 125.308594 C 116.496094 127.308594 116.65625 129.84375 116.578125 131.84375 C 135.855469 134.277344 130.300781 161.601562 130.003906 167.757812 C 129.707031 173.910156 135.796875 179.871094 148.433594 183.375 L 148.433594 177.257812 C 129.484375 173.960938 137.605469 157.363281 134.484375 144.34375 C 131.363281 131.328125 122.894531 128.628906 122.894531 128.628906 C 122.894531 128.628906 131.507812 125.726562 134.550781 112.773438 C 137.589844 99.820312 129.667969 83.363281 148.433594 79.894531 Z M 148.433594 73.777344 " fill-opacity="1" fill-rule="nonzero"/><path fill="#ffffff" d="M 31.941406 225.078125 C 36.519531 226.339844 39.582031 229.34375 39.582031 235.125 C 39.582031 241.976562 35.425781 246.496094 26.855469 246.496094 L 10.136719 246.496094 L 10.136719 205.933594 L 23.285156 205.933594 C 32.050781 205.933594 36.660156 210.144531 36.660156 217.046875 C 36.660156 220.613281 35.113281 223.53125 31.941406 225.078125 Z M 23.371094 212.921875 L 18.253906 212.921875 L 18.253906 222.464844 L 23.734375 222.464844 C 27.332031 222.464844 28.90625 220.332031 28.90625 217.582031 C 28.90625 214.886719 27.136719 212.921875 23.371094 212.921875 Z M 25.28125 239.28125 C 29.832031 239.28125 31.40625 236.839844 31.40625 234.199219 C 31.40625 231.503906 29.859375 228.949219 25.113281 228.949219 L 18.253906 228.949219 L 18.253906 239.28125 Z M 44.632812 246.496094 L 44.632812 203.378906 L 52.808594 203.378906 L 52.808594 246.496094 Z M 78.933594 217.636719 L 87.027344 217.636719 L 87.027344 246.496094 L 79.355469 246.496094 L 79.160156 243.015625 C 77.136719 245.570312 73.933594 247.054688 69.972656 247.054688 C 63.03125 247.054688 59.210938 243.433594 59.210938 237.0625 L 59.210938 217.636719 L 67.332031 217.636719 L 67.332031 235.324219 C 67.332031 239.140625 69.71875 240.542969 72.527344 240.542969 C 75.871094 240.542969 78.90625 238.859375 78.933594 233.554688 Z M 121.1875 231.644531 L 121.105469 233.582031 L 99.691406 233.582031 C 100.03125 238.382812 103.234375 240.683594 107.082031 240.683594 C 109.976562 240.683594 112.226562 239.335938 113.320312 236.78125 L 120.738281 237.878906 C 118.828125 243.714844 113.628906 247.054688 107.140625 247.054688 C 97.808594 247.054688 91.710938 241.554688 91.710938 232.066406 C 91.710938 222.578125 97.980469 217.019531 106.886719 217.019531 C 115.0625 217.019531 121.160156 221.539062 121.1875 231.644531 Z M 106.945312 222.746094 C 103.261719 222.746094 100.707031 224.460938 99.917969 228.304688 L 113.179688 228.304688 C 112.761719 224.628906 110.257812 222.746094 106.945312 222.746094 Z M 162.03125 246.496094 L 151.464844 228.640625 L 149.023438 228.640625 L 149.023438 246.496094 L 140.589844 246.496094 L 140.589844 205.929688 L 155.316406 205.929688 C 164.503906 205.929688 168.382812 211.347656 168.382812 218.058594 C 168.382812 223.503906 165.289062 227.042969 159.78125 228.21875 L 172.007812 246.496094 Z M 149.019531 212.921875 L 149.019531 222.605469 L 153.996094 222.605469 C 158.492188 222.605469 160.316406 220.699219 160.316406 217.777344 C 160.316406 214.886719 158.492188 212.921875 153.996094 212.921875 Z M 199.421875 238.664062 C 199.421875 242.199219 199.761719 244.445312 200.125 245.707031 L 200.125 246.496094 L 192.566406 246.496094 L 191.921875 243.351562 C 189.757812 245.960938 186.019531 247.054688 182.648438 247.054688 C 178.097656 247.054688 173.65625 245.035156 173.65625 239.027344 C 173.65625 233.046875 178.125 231.027344 184.167969 229.707031 L 188.914062 228.640625 C 190.964844 228.164062 191.695312 227.460938 191.695312 226.285156 C 191.695312 223.449219 189.113281 222.664062 186.835938 222.664062 C 183.914062 222.664062 181.695312 223.8125 181.1875 227.070312 L 174.023438 225.777344 C 175.230469 219.800781 179.613281 217.078125 187.285156 217.078125 C 193.074219 217.078125 199.425781 218.789062 199.425781 227.492188 L 199.425781 238.664062 Z M 185.175781 241.582031 C 189.027344 241.582031 192.117188 239.027344 192.117188 233.300781 L 185.261719 235.238281 C 183.015625 235.773438 181.382812 236.558594 181.382812 238.496094 C 181.382812 240.570312 183.097656 241.582031 185.175781 241.582031 Z M 218.972656 247.027344 C 209.898438 247.027344 203.492188 240.992188 203.492188 232.039062 C 203.492188 223.054688 209.898438 217.074219 218.972656 217.074219 C 226.277344 217.074219 231.757812 220.867188 233.164062 227.6875 L 225.6875 228.5 C 224.789062 225.046875 222.289062 223.449219 218.890625 223.449219 C 214.535156 223.449219 211.582031 226.871094 211.582031 232.039062 C 211.582031 237.175781 214.535156 240.628906 218.890625 240.628906 C 222.289062 240.628906 224.789062 239 225.6875 235.574219 L 233.164062 236.390625 C 231.757812 243.210938 226.140625 247.027344 218.972656 247.027344 Z M 250.605469 247.027344 C 241.53125 247.027344 235.121094 240.992188 235.121094 232.039062 C 235.121094 223.054688 241.53125 217.074219 250.605469 217.074219 C 257.910156 217.074219 263.390625 220.867188 264.796875 227.6875 L 257.320312 228.5 C 256.421875 225.046875 253.921875 223.449219 250.523438 223.449219 C 246.167969 223.449219 243.214844 226.871094 243.214844 232.039062 C 243.214844 237.175781 246.167969 240.628906 250.523438 240.628906 C 253.921875 240.628906 256.421875 239 257.320312 235.574219 L 264.796875 236.390625 C 263.390625 243.210938 257.769531 247.027344 250.605469 247.027344 Z M 282.632812 247.054688 C 273.445312 247.054688 266.8125 241.46875 266.8125 232.039062 C 266.8125 222.664062 273.386719 217.078125 282.632812 217.078125 C 291.933594 217.078125 298.480469 222.664062 298.480469 232.039062 C 298.480469 241.46875 291.90625 247.054688 282.632812 247.054688 Z M 282.546875 240.628906 C 287.242188 240.628906 290.445312 237.203125 290.445312 232.039062 C 290.445312 226.871094 287.242188 223.449219 282.546875 223.449219 C 278.023438 223.449219 274.847656 226.871094 274.847656 232.039062 C 274.847656 237.203125 278.023438 240.628906 282.546875 240.628906 Z M 316.570312 247.054688 C 307.382812 247.054688 300.75 241.46875 300.75 232.039062 C 300.75 222.664062 307.324219 217.078125 316.570312 217.078125 C 325.871094 217.078125 332.417969 222.664062 332.417969 232.039062 C 332.417969 241.46875 325.84375 247.054688 316.570312 247.054688 Z M 316.484375 240.628906 C 321.175781 240.628906 324.378906 237.203125 324.378906 232.039062 C 324.378906 226.871094 321.175781 223.449219 316.484375 223.449219 C 311.960938 223.449219 308.785156 226.871094 308.785156 232.039062 C 308.785156 237.203125 311.960938 240.628906 316.484375 240.628906 Z M 354.101562 217.074219 C 361.042969 217.074219 364.863281 220.667969 364.863281 227.070312 L 364.863281 246.496094 L 356.742188 246.496094 L 356.742188 228.808594 C 356.742188 224.964844 354.355469 223.558594 351.574219 223.558594 C 348.230469 223.558594 345.195312 225.246094 345.140625 230.578125 L 345.140625 246.496094 L 337.046875 246.496094 L 337.046875 217.636719 L 345.140625 217.636719 L 345.140625 220.835938 C 347.164062 218.453125 350.28125 217.074219 354.101562 217.074219 Z M 354.101562 217.074219 " fill-opacity="1" fill-rule="nonzero"/><path fill="#ffffff" d="M 66.210938 293 C 62.375 293 59.398438 291.488281 58.785156 288.25 L 62.789062 287.121094 C 63.304688 288.949219 64.601562 289.664062 66.210938 289.664062 C 67.394531 289.664062 68.671875 289.296875 68.640625 287.953125 C 68.621094 286.175781 65.929688 286.027344 63.222656 285.0625 C 61.175781 284.351562 59.214844 283.253906 59.214844 280.382812 C 59.214844 276.878906 62.125 275.269531 65.914062 275.269531 C 69.238281 275.269531 72.011719 276.53125 72.675781 279.785156 L 68.972656 280.613281 C 68.457031 279.019531 67.324219 278.457031 65.929688 278.457031 C 64.667969 278.457031 63.585938 278.902344 63.585938 279.964844 C 63.585938 281.3125 65.5625 281.578125 67.707031 282.160156 C 70.351562 282.871094 73.242188 284.019531 73.242188 287.671875 C 73.242188 291.589844 69.902344 293 66.210938 293 Z M 84.644531 293 C 79.210938 293 75.285156 289.695312 75.285156 284.117188 C 75.285156 278.570312 79.175781 275.269531 84.644531 275.269531 C 90.144531 275.269531 94.015625 278.570312 94.015625 284.117188 C 94.015625 289.695312 90.128906 293 84.644531 293 Z M 84.59375 289.199219 C 87.371094 289.199219 89.265625 287.171875 89.265625 284.117188 C 89.265625 281.0625 87.371094 279.035156 84.59375 279.035156 C 81.917969 279.035156 80.039062 281.0625 80.039062 284.117188 C 80.039062 287.171875 81.917969 289.199219 84.59375 289.199219 Z M 97.574219 292.667969 L 97.574219 267.164062 L 102.410156 267.164062 L 102.410156 292.667969 Z M 118.480469 275.601562 L 123.550781 275.601562 L 116.269531 292.667969 L 112.117188 292.667969 L 104.917969 275.601562 L 109.957031 275.601562 L 114.210938 287.273438 Z M 142.128906 283.886719 L 142.082031 285.03125 L 129.417969 285.03125 C 129.617188 287.871094 131.511719 289.230469 133.785156 289.230469 C 135.5 289.230469 136.828125 288.433594 137.476562 286.921875 L 141.863281 287.570312 C 140.734375 291.023438 137.660156 293 133.820312 293 C 128.300781 293 124.695312 289.746094 124.695312 284.132812 C 124.695312 278.523438 128.402344 275.234375 133.671875 275.234375 C 138.507812 275.234375 142.113281 277.90625 142.128906 283.886719 Z M 133.703125 278.621094 C 131.527344 278.621094 130.015625 279.632812 129.550781 281.910156 L 137.394531 281.910156 C 137.144531 279.734375 135.664062 278.621094 133.703125 278.621094 Z M 176.796875 292.667969 L 171.3125 292.667969 L 169.734375 290.691406 C 167.558594 292.136719 164.964844 293 162.125 293 C 157.289062 293 153.664062 290.492188 153.664062 285.945312 C 153.664062 282.472656 155.792969 280.78125 159.847656 278.257812 L 159.648438 278.007812 C 158.035156 275.964844 157.488281 274.570312 157.488281 273.226562 C 157.488281 271.632812 158.183594 270.417969 159.347656 269.589844 C 160.476562 268.757812 162.074219 268.328125 163.902344 268.328125 C 167.941406 268.328125 170.449219 270.371094 170.449219 273.308594 C 170.449219 275.402344 169.152344 277.09375 165.828125 279.085938 L 170.167969 284.449219 C 171.398438 282.574219 172.0625 280.398438 172.0625 278.523438 L 176.382812 278.523438 C 176.382812 281.925781 175.085938 285.246094 172.910156 287.851562 Z M 162.539062 271.945312 C 162.175781 272.261719 161.992188 272.742188 161.992188 273.292969 C 161.992188 274.089844 162.375 274.753906 163.253906 275.882812 L 163.636719 276.363281 C 165.382812 275.316406 166.210938 274.253906 166.210938 273.226562 C 166.210938 272.113281 165.265625 271.433594 164.050781 271.433594 C 163.402344 271.433594 162.90625 271.613281 162.539062 271.945312 Z M 162.324219 289.082031 C 164.183594 289.082031 165.847656 288.484375 167.226562 287.539062 L 162.175781 281.195312 C 159.746094 282.671875 158.085938 283.703125 158.085938 285.828125 C 158.085938 287.96875 159.796875 289.082031 162.324219 289.082031 Z M 195.761719 293 C 191.921875 293 188.949219 291.488281 188.332031 288.25 L 192.339844 287.121094 C 192.855469 288.949219 194.148438 289.664062 195.761719 289.664062 C 196.941406 289.664062 198.222656 289.296875 198.1875 287.953125 C 198.171875 286.175781 195.480469 286.027344 192.769531 285.0625 C 190.726562 284.351562 188.765625 283.253906 188.765625 280.382812 C 188.765625 276.878906 191.671875 275.269531 195.460938 275.269531 C 198.785156 275.269531 201.5625 276.53125 202.226562 279.785156 L 198.519531 280.613281 C 198.003906 279.019531 196.875 278.457031 195.480469 278.457031 C 194.214844 278.457031 193.136719 278.902344 193.136719 279.964844 C 193.136719 281.3125 195.113281 281.578125 197.257812 282.160156 C 199.898438 282.871094 202.792969 284.019531 202.792969 287.671875 C 202.792969 291.589844 199.453125 293 195.761719 293 Z M 208.675781 273.042969 C 207.164062 273.042969 205.898438 271.816406 205.898438 270.285156 C 205.898438 268.777344 207.164062 267.546875 208.675781 267.546875 C 210.15625 267.546875 211.417969 268.777344 211.417969 270.285156 C 211.417969 271.816406 210.15625 273.042969 208.675781 273.042969 Z M 206.230469 292.667969 L 206.230469 275.601562 L 211.050781 275.601562 L 211.050781 292.667969 Z M 236.246094 275.269531 C 239.902344 275.269531 242.265625 277.128906 242.265625 280.632812 L 242.265625 292.667969 L 237.476562 292.667969 L 237.476562 281.992188 C 237.476562 279.984375 236.214844 279.105469 234.785156 279.105469 C 233.074219 279.105469 231.5625 280.082031 231.5625 283.039062 L 231.5625 292.667969 L 226.726562 292.667969 L 226.726562 282.042969 C 226.726562 280 225.496094 279.105469 223.984375 279.105469 C 222.320312 279.105469 220.773438 280.082031 220.773438 283.289062 L 220.773438 292.667969 L 216.003906 292.667969 L 216.003906 275.601562 L 220.773438 275.601562 L 220.773438 277.609375 C 221.90625 276.097656 223.632812 275.269531 225.726562 275.269531 C 228.203125 275.269531 230.066406 276.164062 230.964844 277.824219 C 232.160156 276.117188 233.988281 275.269531 236.25 275.269531 Z M 256.9375 275.269531 C 261.441406 275.269531 265.164062 278.574219 265.164062 284.167969 C 265.164062 289.761719 261.441406 293.066406 256.9375 293.066406 C 254.710938 293.066406 252.71875 292.203125 251.703125 290.644531 L 251.703125 300.96875 L 246.917969 300.96875 L 246.917969 275.601562 L 251.453125 275.601562 L 251.585938 277.890625 C 252.535156 276.199219 254.613281 275.269531 256.9375 275.269531 Z M 255.859375 289.097656 C 258.367188 289.097656 260.378906 287.273438 260.378906 284.167969 C 260.378906 281.0625 258.367188 279.234375 255.859375 279.234375 C 253.300781 279.234375 251.304688 281.179688 251.304688 284.167969 C 251.304688 287.15625 253.300781 289.097656 255.859375 289.097656 Z M 268.773438 292.667969 L 268.773438 267.164062 L 273.609375 267.164062 L 273.609375 292.667969 Z M 281.003906 273.042969 C 279.492188 273.042969 278.226562 271.816406 278.226562 270.285156 C 278.226562 268.777344 279.492188 267.546875 281.003906 267.546875 C 282.484375 267.546875 283.746094 268.777344 283.746094 270.285156 C 283.746094 271.816406 282.484375 273.042969 281.003906 273.042969 Z M 278.5625 292.667969 L 278.5625 275.601562 L 283.378906 275.601562 L 283.378906 292.667969 Z M 297.972656 270.984375 C 296.394531 270.984375 294.300781 270.917969 294.300781 273.773438 L 294.300781 275.601562 L 297.972656 275.601562 L 297.972656 279.269531 L 294.300781 279.269531 L 294.300781 292.667969 L 289.53125 292.667969 L 289.53125 279.269531 L 286.1875 279.269531 L 286.1875 275.601562 L 289.53125 275.601562 L 289.53125 273.757812 C 289.53125 267.996094 293.019531 267.164062 297.972656 267.164062 Z M 311.867188 275.601562 L 316.769531 275.601562 L 306.230469 300.703125 L 301.378906 300.703125 L 305.285156 291.972656 L 298.253906 275.601562 L 303.472656 275.601562 L 307.546875 286.824219 Z M 311.867188 275.601562 " fill-opacity="1" fill-rule="nonzero"/></svg>