
        <svg xmlns="http://www.w3.org/2000/svg" xmlns:xlink="http://www.w3.org/1999/xlink" version="1.1" width="3171.4285714285716" 
        height="2094.7475956812305" viewBox="0 0 3171.4285714285716 2094.7475956812305">
			
			<g transform="scale(8.571428571428571) translate(10, 10)">
				<defs id="SvgjsDefs10417"></defs><g id="SvgjsG10418" featureKey="symbolFeature-0" transform="matrix(1.6365896688029642,0,0,1.6365896688029642,91.73710058578952,-30.827615328009042)" fill="#ff9900"><path xmlns="http://www.w3.org/2000/svg" style="" d="m 31.355933,71.610168 a 5.2966104,5.2966104 0 1 1 -10.593221,0 5.2966104,5.2966104 0 1 1 10.593221,0 z" transform="matrix(-1.06254,0,0,1.06254,94.701126,-2.9688421)" fill="#ff9900" fill-opacity="1" stroke="none"></path><path xmlns="http://www.w3.org/2000/svg" style="" d="m 31.355933,71.610168 a 5.2966104,5.2966104 0 1 1 -10.593221,0 5.2966104,5.2966104 0 1 1 10.593221,0 z" transform="matrix(-1.06254,0,0,1.06254,79.618466,-2.9688421)" fill="#ff9900" fill-opacity="1" stroke="none"></path><path xmlns="http://www.w3.org/2000/svg" style="" d="m 31.355933,71.610168 a 5.2966104,5.2966104 0 1 1 -10.593221,0 5.2966104,5.2966104 0 1 1 10.593221,0 z" transform="matrix(-1.06254,0,0,1.06254,64.535799,-2.9688421)" fill="#ff9900" fill-opacity="1" stroke="none"></path><g xmlns="http://www.w3.org/2000/svg" transform="matrix(1.2337654,0,0,0.72077526,-7.8380313,15.280601)"><g transform="matrix(-0.64954281,0,0,0.64954281,121.98404,-6.3967102)"><g><path d="m 85.144945,17.66506 c -9.505493,4.5168 -14.089702,12.20209 -13.820043,20.22445 0.269659,8.02236 4.113519,42.654596 -10.145933,46.199473 -0.06,2.58 0.06,5.847094 0,8.427094 14.502,3.137 10.325782,38.356133 10.101025,46.288983 -0.224757,7.93285 4.359452,15.61814 13.864945,20.13494 l 6e-6,-7.88754 c -14.257,-4.251 -8.147737,-25.64443 -10.494527,-42.42409 -2.34679,-16.77966 -8.719863,-20.259539 -8.719863,-20.259539 0,0 6.48169,-3.738721 8.769439,-20.434951 C 76.987749,51.23765 71.026932,30.0225 85.144945,25.5526 z"></path></g></g><g transform="matrix(0.64954281,0,0,0.64954281,-26.805673,-6.5407826)"><g><path d="m 85.144945,17.66506 c -9.505493,4.5168 -14.089702,12.20209 -13.820043,20.22445 0.269659,8.02236 4.113519,42.654596 -10.145933,46.199473 -0.06,2.58 0.06,5.847094 0,8.427094 14.502,3.137 10.325782,38.356133 10.101025,46.288983 -0.224757,7.93285 4.359452,15.61814 13.864945,20.13494 l 6e-6,-7.88754 c -14.257,-4.251 -8.147737,-25.64443 -10.494527,-42.42409 -2.34679,-16.77966 -8.719863,-20.259539 -8.719863,-20.259539 0,0 6.48169,-3.738721 8.769439,-20.434951 C 76.987749,51.23765 71.026932,30.0225 85.144945,25.5526 z"></path></g></g></g></g><g id="SvgjsG10419" featureKey="nameFeature-0" transform="matrix(1.4194905302834568,0,0,1.4194905302834568,-5.185114450198982,113.80509469716543)" fill="#060606"><path d="M18.809 25.098 c3.1836 0.87891 5.3125 2.9688 5.3125 6.9922 c0 4.7656 -2.8906 7.9102 -8.8477 7.9102 l-11.621 0 l0 -28.223 l9.1406 0 c6.0938 0 9.2969 2.9297 9.2969 7.7344 c0 2.4805 -1.0742 4.5117 -3.2813 5.5859 z M12.852 16.641 l-3.5547 0 l0 6.6406 l3.8086 0 c2.5 0 3.5938 -1.4844 3.5938 -3.3984 c0 -1.875 -1.2305 -3.2422 -3.8477 -3.2422 z M14.18 34.9805 c3.1641 0 4.2578 -1.6992 4.2578 -3.5352 c0 -1.875 -1.0742 -3.6523 -4.375 -3.6523 l-4.7656 0 l0 7.1875 l4.8828 0 z M27.6318796875 40 l0 -30 l5.6836 0 l0 30 l-5.6836 0 z M51.474671875 19.922 l5.625 0 l0 20.078 l-5.332 0 l-0.13672 -2.4219 c-1.4063 1.7773 -3.6328 2.8125 -6.3867 2.8125 c-4.8242 0 -7.4805 -2.5195 -7.4805 -6.9531 l0 -13.516 l5.6445 0 l0 12.305 c0 2.6563 1.6602 3.6328 3.6133 3.6328 c2.3242 0 4.4336 -1.1719 4.4531 -4.8633 l0 -11.074 z M80.8448515625 29.668 l-0.058594 1.3477 l-14.883 0 c0.23438 3.3398 2.4609 4.9414 5.1367 4.9414 c2.0117 0 3.5742 -0.9375 4.3359 -2.7148 l5.1563 0.76172 c-1.3281 4.0625 -4.9414 6.3867 -9.4531 6.3867 c-6.4844 0 -10.723 -3.8281 -10.723 -10.43 s4.3555 -10.469 10.547 -10.469 c5.6836 0 9.9219 3.1445 9.9414 10.176 z M70.9428515625 23.477 c-2.5586 0 -4.3359 1.1914 -4.8828 3.8672 l9.2188 0 c-0.29297 -2.5586 -2.0313 -3.8672 -4.3359 -3.8672 z M109.2337109375 40 l-7.3438 -12.422 l-1.6992 0 l0 12.422 l-5.8594 0 l0 -28.223 l10.234 0 c6.3867 0 9.082 3.7695 9.082 8.4375 c0 3.7891 -2.1484 6.25 -5.9766 7.0703 l8.4961 12.715 l-6.9336 0 z M100.1904109375 16.641 l0 6.7383 l3.457 0 c3.125 0 4.3945 -1.3281 4.3945 -3.3594 c0 -2.0117 -1.2695 -3.3789 -4.3945 -3.3789 l-3.457 0 z M135.224609375 34.5508 c0 2.4609 0.23438 4.0234 0.48828 4.9023 l0 0.54688 l-5.2539 0 l-0.44922 -2.1875 c-1.5039 1.8164 -4.1016 2.5781 -6.4453 2.5781 c-3.1641 0 -6.25 -1.4063 -6.25 -5.5859 c0 -4.1602 3.1055 -5.5664 7.3047 -6.4844 l3.3008 -0.74219 c1.4258 -0.33203 1.9336 -0.82031 1.9336 -1.6406 c0 -1.9727 -1.7969 -2.5195 -3.3789 -2.5195 c-2.0313 0 -3.5742 0.80078 -3.9258 3.0664 l-4.9805 -0.89844 c0.83984 -4.1602 3.8867 -6.0547 9.2188 -6.0547 c4.0234 0 8.4375 1.1914 8.4375 7.2461 l0 7.7734 z M125.322309375 36.582 c2.6758 0 4.8242 -1.7773 4.8242 -5.7617 l-4.7656 1.3477 c-1.5625 0.37109 -2.6953 0.91797 -2.6953 2.2656 c0 1.4453 1.1914 2.1484 2.6367 2.1484 z M148.8132890625 40.37109 c-6.3086 0 -10.762 -4.1992 -10.762 -10.43 c0 -6.25 4.4531 -10.41 10.762 -10.41 c5.0781 0 8.8867 2.6367 9.8633 7.3828 l-5.1953 0.56641 c-0.625 -2.4023 -2.3633 -3.5156 -4.7266 -3.5156 c-3.0273 0 -5.0781 2.3828 -5.0781 5.9766 c0 3.5742 2.0508 5.9766 5.0781 5.9766 c2.3633 0 4.1016 -1.1328 4.7266 -3.5156 l5.1953 0.56641 c-0.97656 4.7461 -4.8828 7.4023 -9.8633 7.4023 z M170.80059375 40.37109 c-6.3086 0 -10.762 -4.1992 -10.762 -10.43 c0 -6.25 4.4531 -10.41 10.762 -10.41 c5.0781 0 8.8867 2.6367 9.8633 7.3828 l-5.1953 0.56641 c-0.625 -2.4023 -2.3633 -3.5156 -4.7266 -3.5156 c-3.0273 0 -5.0781 2.3828 -5.0781 5.9766 c0 3.5742 2.0508 5.9766 5.0781 5.9766 c2.3633 0 4.1016 -1.1328 4.7266 -3.5156 l5.1953 0.56641 c-0.97656 4.7461 -4.8828 7.4023 -9.8633 7.4023 z M193.0618984375 40.39063 c-6.3867 0 -10.996 -3.8867 -10.996 -10.449 c0 -6.5234 4.5703 -10.41 10.996 -10.41 c6.4648 0 11.016 3.8867 11.016 10.41 c0 6.5625 -4.5703 10.449 -11.016 10.449 z M193.0028984375 35.918 c3.2617 0 5.4883 -2.3828 5.4883 -5.9766 s-2.2266 -5.9766 -5.4883 -5.9766 c-3.1445 0 -5.3516 2.3828 -5.3516 5.9766 s2.207 5.9766 5.3516 5.9766 z M216.650765625 40.39063 c-6.3867 0 -10.996 -3.8867 -10.996 -10.449 c0 -6.5234 4.5703 -10.41 10.996 -10.41 c6.4648 0 11.016 3.8867 11.016 10.41 c0 6.5625 -4.5703 10.449 -11.016 10.449 z M216.591765625 35.918 c3.2617 0 5.4883 -2.3828 5.4883 -5.9766 s-2.2266 -5.9766 -5.4883 -5.9766 c-3.1445 0 -5.3516 2.3828 -5.3516 5.9766 s2.207 5.9766 5.3516 5.9766 z M242.7396328125 19.531 c4.8242 0 7.4805 2.5 7.4805 6.9531 l0 13.516 l-5.6445 0 l0 -12.305 c0 -2.6758 -1.6602 -3.6523 -3.5938 -3.6523 c-2.3242 0 -4.4336 1.1719 -4.4727 4.8828 l0 11.074 l-5.625 0 l0 -20.078 l5.625 0 l0 2.2266 c1.4063 -1.6602 3.5742 -2.6172 6.2305 -2.6172 z"></path></g><g id="SvgjsG10420" featureKey="sloganFeature-0" transform="matrix(1.6791505859340683,0,0,1.6791505859340683,46.95053088379121,182.60458335651498)" fill="#060606"><path d="M4.9902 20.19531 c-2.2559 0 -4.0039 -0.88867 -4.3652 -2.793 l2.3535 -0.66406 c0.30273 1.0742 1.0645 1.4941 2.0117 1.4941 c0.69336 0 1.4453 -0.21484 1.4258 -1.0059 c-0.0097656 -1.0449 -1.5918 -1.1328 -3.1836 -1.6992 c-1.2012 -0.41992 -2.3535 -1.0645 -2.3535 -2.7539 c0 -2.0605 1.709 -3.0078 3.9355 -3.0078 c1.9531 0 3.584 0.74219 3.9746 2.6563 l-2.1777 0.48828 c-0.30273 -0.9375 -0.9668 -1.2695 -1.7871 -1.2695 c-0.74219 0 -1.377 0.26367 -1.377 0.88867 c0 0.79102 1.1621 0.94727 2.4219 1.2891 c1.5527 0.41992 3.252 1.0938 3.252 3.2422 c0 2.3047 -1.9629 3.1348 -4.1309 3.1348 z M15.8203 20.19531 c-3.1934 0 -5.498 -1.9434 -5.498 -5.2246 c0 -3.2617 2.2852 -5.2051 5.498 -5.2051 c3.2324 0 5.5078 1.9434 5.5078 5.2051 c0 3.2813 -2.2852 5.2246 -5.5078 5.2246 z M15.791 17.959 c1.6309 0 2.7441 -1.1914 2.7441 -2.9883 s-1.1133 -2.9883 -2.7441 -2.9883 c-1.5723 0 -2.6758 1.1914 -2.6758 2.9883 s1.1035 2.9883 2.6758 2.9883 z M23.417990625 20 l0 -15 l2.8418 0 l0 15 l-2.8418 0 z M35.70314375 9.961 l2.9785 0 l-4.2773 10.039 l-2.4414 0 l-4.2285 -10.039 l2.959 0 l2.5 6.8652 z M49.599171874999996 14.834 l-0.029297 0.67383 l-7.4414 0 c0.11719 1.6699 1.2305 2.4707 2.5684 2.4707 c1.0059 0 1.7871 -0.46875 2.168 -1.3574 l2.5781 0.38086 c-0.66406 2.0313 -2.4707 3.1934 -4.7266 3.1934 c-3.2422 0 -5.3613 -1.9141 -5.3613 -5.2148 s2.1777 -5.2344 5.2734 -5.2344 c2.8418 0 4.9609 1.5723 4.9707 5.0879 z M44.648471875 11.7383 c-1.2793 0 -2.168 0.5957 -2.4414 1.9336 l4.6094 0 c-0.14648 -1.2793 -1.0156 -1.9336 -2.168 -1.9336 z M69.970515625 20 l-3.2227 0 l-0.92773 -1.1621 c-1.2793 0.84961 -2.8027 1.3574 -4.4727 1.3574 c-2.8418 0 -4.9707 -1.4746 -4.9707 -4.1504 c0 -2.041 1.25 -3.0371 3.6328 -4.5215 l-0.11719 -0.14648 c-0.94727 -1.2012 -1.2695 -2.0215 -1.2695 -2.8125 c0 -0.9375 0.41016 -1.6504 1.0938 -2.1387 c0.66406 -0.48828 1.6016 -0.74219 2.6758 -0.74219 c2.373 0 3.8477 1.2012 3.8477 2.9297 c0 1.2305 -0.76172 2.2266 -2.7148 3.3984 l2.5488 3.1543 c0.72266 -1.1035 1.1133 -2.3828 1.1133 -3.4863 l2.5391 0 c0 2.002 -0.76172 3.9551 -2.041 5.4883 z M61.591815625 7.811999999999999 c-0.21484 0.18555 -0.32227 0.46875 -0.32227 0.79102 c0 0.46875 0.22461 0.85938 0.74219 1.5234 l0.22461 0.2832 c1.0254 -0.61523 1.5137 -1.2402 1.5137 -1.8457 c0 -0.6543 -0.55664 -1.0547 -1.2695 -1.0547 c-0.38086 0 -0.67383 0.10742 -0.88867 0.30273 z M61.464815625 17.8906 c1.0938 0 2.0703 -0.35156 2.8809 -0.9082 l-2.9688 -3.7305 c-1.4258 0.86914 -2.4023 1.4746 -2.4023 2.7246 c0 1.2598 1.0059 1.9141 2.4902 1.9141 z M81.113246875 20.19531 c-2.2559 0 -4.0039 -0.88867 -4.3652 -2.793 l2.3535 -0.66406 c0.30273 1.0742 1.0645 1.4941 2.0117 1.4941 c0.69336 0 1.4453 -0.21484 1.4258 -1.0059 c-0.0097656 -1.0449 -1.5918 -1.1328 -3.1836 -1.6992 c-1.2012 -0.41992 -2.3535 -1.0645 -2.3535 -2.7539 c0 -2.0605 1.709 -3.0078 3.9355 -3.0078 c1.9531 0 3.584 0.74219 3.9746 2.6563 l-2.1777 0.48828 c-0.30273 -0.9375 -0.9668 -1.2695 -1.7871 -1.2695 c-0.74219 0 -1.377 0.26367 -1.377 0.88867 c0 0.79102 1.1621 0.94727 2.4219 1.2891 c1.5527 0.41992 3.252 1.0938 3.252 3.2422 c0 2.3047 -1.9629 3.1348 -4.1309 3.1348 z M88.701146875 8.457 c-0.88867 0 -1.6309 -0.72266 -1.6309 -1.6211 c0 -0.88867 0.74219 -1.6113 1.6309 -1.6113 c0.86914 0 1.6113 0.72266 1.6113 1.6113 c0 0.89844 -0.74219 1.6211 -1.6113 1.6211 z M87.265646875 20 l0 -10.039 l2.832 0 l0 10.039 l-2.832 0 z M104.902734375 9.766 c2.1484 0 3.5352 1.0938 3.5352 3.1543 l0 7.0801 l-2.8125 0 l0 -6.2793 c0 -1.1816 -0.74219 -1.6992 -1.582 -1.6992 c-1.0059 0 -1.8945 0.57617 -1.8945 2.3145 l0 5.6641 l-2.8418 0 l0 -6.25 c0 -1.2012 -0.72266 -1.7285 -1.6113 -1.7285 c-0.97656 0 -1.8848 0.57617 -1.8848 2.4609 l0 5.5176 l-2.8027 0 l0 -10.039 l2.8027 0 l0 1.1816 c0.66406 -0.88867 1.6797 -1.377 2.9102 -1.377 c1.4551 0 2.5488 0.52734 3.0762 1.5039 c0.70313 -1.0059 1.7773 -1.5039 3.1055 -1.5039 z M117.060596875 9.766 c2.6465 0 4.834 1.9434 4.834 5.2344 s-2.1875 5.2344 -4.834 5.2344 c-1.3086 0 -2.4805 -0.50781 -3.0762 -1.4258 l0 6.0742 l-2.8125 0 l0 -14.922 l2.666 0 l0.078125 1.3477 c0.55664 -0.99609 1.7773 -1.543 3.1445 -1.543 z M116.425796875 17.9004 c1.4746 0 2.6563 -1.0742 2.6563 -2.9004 s-1.1816 -2.9004 -2.6563 -2.9004 c-1.5039 0 -2.6758 1.1426 -2.6758 2.9004 s1.1719 2.9004 2.6758 2.9004 z M124.01369375 20 l0 -15 l2.8418 0 l0 15 l-2.8418 0 z M131.201146875 8.457 c-0.88867 0 -1.6309 -0.72266 -1.6309 -1.6211 c0 -0.88867 0.74219 -1.6113 1.6309 -1.6113 c0.86914 0 1.6113 0.72266 1.6113 1.6113 c0 0.89844 -0.74219 1.6211 -1.6113 1.6211 z M129.765646875 20 l0 -10.039 l2.832 0 l0 10.039 l-2.832 0 z M141.171834375 7.246 c-0.92773 0 -2.1582 -0.039063 -2.1582 1.6406 l0 1.0742 l2.1582 0 l0 2.1582 l-2.1582 0 l0 7.8809 l-2.8027 0 l0 -7.8809 l-1.9629 0 l0 -2.1582 l1.9629 0 l0 -1.084 c0 -3.3887 2.0508 -3.877 4.9609 -3.877 l0 2.2461 z M149.33589375 9.961 l2.8809 0 l-6.1914 14.766 l-2.8516 0 l2.2949 -5.1367 l-4.1309 -9.6289 l3.0664 0 l2.3926 6.6016 z"></path></g>
			</g>
		</svg>
	